# xmcd
#
# Track frame offsets:
#	150
#	30788
#	52534
#	68807
#	91899
#	105985
#	122109
#	138756
#	157854
#	187511
#	204790
#
# Disc length: 3006 seconds
#
# Revision: 1
# Processed by: cddbd v1.4PL0 Copyright (c) Steve Scherf et al.
# Submitted via: audiograbber 1.81.03
#
DISCID=6b0bbc0b
DTITLE=Nighthawks - Live Tonight!
DYEAR=2002
DGENRE=
TTITLE0=Up The Line/Mystery Train
TTITLE1=Hush Hush
TTITLE2=Howlin' For My Darlin'
TTITLE3=Am I Losing You
TTITLE4=None Of That Stuff
TTITLE5=Who'll Be The Next One
TTITLE6=Still A Fool
TTITLE7=Boogie Woogie Country Girl
TTITLE8=Sugar Sweet
TTITLE9=Baby Let's Play House
TTITLE10=Mean Old World
EXTD=
EXTT0=
EXTT1=
EXTT2=
EXTT3=
EXTT4=
EXTT5=
EXTT6=
EXTT7=
EXTT8=
EXTT9=
EXTT10=
PLAYORDER=
